<?xml version="1.0" standalone="no"?>
<!DOCTYPE svg PUBLIC "-//W3C//DTD SVG 20010904//EN"
 "http://www.w3.org/TR/2001/REC-SVG-20010904/DTD/svg10.dtd">
<svg version="1.0" xmlns="http://www.w3.org/2000/svg"
 width="912.000000pt" height="912.000000pt" viewBox="0 0 912.000000 912.000000"
 preserveAspectRatio="xMidYMid meet">
<metadata>
Created by potrace 1.14, written by Peter Selinger 2001-2017
</metadata>
<g transform="translate(0.000000,912.000000) scale(0.100000,-0.100000)"
fill="#000000" stroke="none">
<path d="M7980 8430 c0 -5 -5 -10 -11 -10 -10 0 -343 -261 -468 -367 -14 -13
-31 -27 -38 -33 -23 -19 -22 7 2 43 14 20 25 40 25 45 0 5 9 21 20 34 10 14
16 28 13 32 -3 3 -2 6 4 6 6 0 13 9 16 19 4 15 -2 20 -25 23 -33 5 -77 -20
-146 -83 -9 -8 -37 -30 -62 -49 -39 -29 -69 -54 -140 -113 -8 -7 -35 -28 -60
-47 -25 -19 -47 -37 -50 -40 -19 -20 -100 -80 -108 -80 -5 0 -13 11 -16 24 -3
13 -14 27 -23 31 -45 19 -63 12 -130 -43 -37 -32 -99 -81 -137 -111 -38 -29
-78 -61 -90 -71 -41 -35 -103 -85 -135 -110 -18 -13 -45 -35 -59 -47 -31 -27
-38 -32 -71 -55 -23 -16 -26 -16 -50 1 -14 10 -44 28 -66 39 -187 94 -296 145
-390 182 -60 23 -119 46 -130 50 -11 4 -40 14 -65 21 -25 7 -49 16 -55 20 -5
4 -12 7 -15 7 -14 0 -86 15 -95 20 -5 3 -16 7 -25 9 -8 1 -55 11 -104 23 -49
11 -110 23 -135 26 -25 3 -55 8 -66 11 -32 7 -153 21 -255 29 -62 4 -357 4
-400 0 -19 -3 -71 -7 -115 -11 -85 -7 -127 -12 -135 -15 -3 -1 -8 -2 -12 -1
-3 0 -44 -6 -90 -15 -45 -8 -95 -17 -110 -19 -15 -2 -46 -9 -70 -15 -24 -7
-50 -13 -58 -15 -92 -18 -375 -110 -465 -150 -27 -13 -75 -33 -105 -46 -53
-23 -231 -116 -296 -155 -17 -11 -53 -32 -80 -49 -27 -16 -51 -32 -54 -35 -3
-3 -35 -27 -73 -53 -37 -26 -73 -51 -80 -57 -6 -5 -39 -31 -72 -57 -216 -169
-504 -467 -636 -659 -18 -27 -39 -55 -45 -62 -7 -6 -16 -21 -19 -32 -3 -11
-10 -20 -14 -20 -5 0 -14 -13 -21 -30 -7 -16 -16 -30 -20 -30 -4 0 -13 -14
-20 -31 -7 -17 -18 -36 -24 -42 -43 -45 -269 -519 -269 -564 0 -7 -3 -13 -6
-13 -4 0 -13 -21 -20 -47 -8 -27 -19 -59 -24 -73 -6 -14 -11 -28 -12 -32 -2
-5 -3 -9 -5 -10 -1 -2 -3 -10 -5 -18 -10 -40 -15 -60 -34 -126 -19 -66 -53
-219 -66 -289 -2 -16 -7 -39 -9 -50 -2 -12 -7 -48 -11 -80 -4 -33 -9 -69 -11
-80 -19 -102 -25 -555 -10 -730 l8 -90 -60 -55 c-32 -30 -96 -89 -142 -130
-46 -41 -97 -88 -115 -105 -17 -16 -67 -62 -111 -102 -172 -156 -178 -163
-164 -198 5 -11 20 -28 34 -39 l26 -18 -29 -27 c-16 -14 -58 -53 -95 -86 -37
-33 -88 -80 -115 -105 -26 -25 -90 -83 -140 -130 -51 -46 -104 -95 -118 -107
-24 -23 -24 -25 -9 -49 13 -19 21 -22 34 -15 9 5 19 9 22 9 6 1 29 9 94 34 27
10 51 17 53 14 5 -4 -77 -87 -145 -146 -40 -35 -221 -203 -293 -271 -37 -35
-37 -36 -21 -60 16 -23 48 -28 62 -10 3 3 34 21 70 39 82 42 195 103 240 130
19 12 55 31 80 44 25 12 53 28 62 36 17 15 43 8 32 -9 -9 -16 7 -119 20 -119
6 0 34 22 62 48 27 26 95 88 149 137 55 50 113 104 131 120 18 17 64 59 104
95 40 36 95 86 123 112 l52 48 3 -30 c5 -49 1 -52 182 120 71 67 100 87 100
70 0 -36 160 -402 201 -461 17 -25 17 -26 -1 -41 -10 -9 -28 -22 -40 -28 -13
-7 -36 -24 -52 -38 -17 -15 -32 -26 -34 -25 -2 2 -15 -7 -29 -19 l-25 -22 32
-13 32 -14 -29 -19 c-17 -10 -55 -36 -85 -57 -30 -21 -103 -72 -162 -112 -60
-41 -108 -78 -108 -83 0 -4 8 -8 19 -8 10 0 32 -5 50 -11 l32 -11 -78 -54
c-43 -30 -91 -66 -108 -79 -16 -14 -35 -25 -42 -25 -6 0 -13 -5 -15 -11 -3 -8
-14 -8 -41 -1 -22 6 -37 7 -37 1 0 -5 5 -9 11 -9 5 0 7 -5 4 -10 -3 -5 -1 -10
5 -10 7 0 21 -12 32 -26 14 -17 26 -23 37 -19 9 4 21 8 26 9 6 1 15 5 21 8 6
4 30 10 54 13 23 3 45 7 49 9 15 9 52 -15 49 -31 -3 -15 -67 -69 -130 -108
-42 -26 -275 -190 -286 -202 -7 -7 -20 -13 -28 -13 -8 0 -14 -4 -14 -8 0 -5
-16 -17 -35 -28 -19 -10 -35 -22 -35 -26 0 -3 -8 -9 -19 -13 -10 -3 -31 -16
-46 -30 l-28 -24 34 -14 c32 -13 41 -12 124 7 45 11 175 47 195 54 8 3 26 7
39 9 14 2 32 8 42 14 26 13 26 13 28 -39 1 -26 2 -53 3 -59 2 -15 18 -18 18
-3 0 6 6 10 14 10 8 0 16 3 18 8 2 4 36 29 77 56 40 27 78 54 85 60 6 6 23 17
38 25 15 8 36 21 45 30 10 9 36 28 58 41 22 13 42 26 45 30 3 3 31 23 62 44
57 38 59 44 31 78 -15 17 -16 16 28 43 9 5 57 38 107 73 50 34 96 62 101 62 5
0 8 -9 5 -20 -13 -59 -26 -128 -29 -157 -4 -26 -8 -28 202 114 l121 82 27 -35
c49 -63 232 -241 358 -347 31 -27 57 -52 57 -55 0 -4 -22 -21 -48 -39 -26 -18
-58 -43 -72 -55 -23 -22 -107 -90 -138 -113 -23 -17 -132 -122 -132 -128 0 -2
18 -7 40 -11 46 -7 50 -17 15 -36 -13 -7 -22 -17 -19 -22 3 -4 -2 -8 -10 -8
-8 0 -19 -6 -23 -13 -11 -17 -68 -57 -90 -62 -56 -13 -110 -28 -123 -33 -8 -3
-19 -6 -25 -7 -5 -1 -23 -8 -39 -16 l-28 -16 36 -17 c33 -15 48 -36 28 -36 -5
0 -22 -13 -38 -30 -16 -16 -33 -30 -37 -30 -4 0 -19 -11 -32 -24 -13 -13 -34
-31 -46 -40 -20 -14 -21 -18 -10 -42 9 -20 17 -25 34 -21 12 3 32 8 45 11 13
3 33 8 44 12 19 6 19 4 7 -13 -12 -18 -98 -118 -124 -147 -6 -6 -28 -32 -48
-58 -32 -38 -37 -50 -28 -66 18 -34 36 -31 87 13 27 24 50 42 52 40 2 -1 15 9
30 24 26 24 66 58 120 98 13 10 37 30 55 45 18 15 34 28 37 28 3 0 5 -33 5
-73 -1 -39 3 -75 8 -78 9 -6 28 5 66 41 9 8 35 28 56 45 22 16 45 34 51 40 6
5 25 21 43 35 18 14 39 31 46 38 16 14 39 16 30 2 -3 -5 0 -19 8 -30 15 -22
10 -24 73 29 11 9 158 129 198 161 10 8 29 24 42 35 13 11 37 31 55 45 18 14
37 30 43 35 6 6 28 23 49 39 34 26 48 48 30 45 -5 -1 -17 -1 -27 0 -20 1 -20
1 0 19 10 10 43 37 72 59 60 48 34 53 227 -43 116 -57 144 -70 250 -112 81
-33 217 -80 265 -92 25 -6 52 -14 60 -17 8 -3 21 -7 29 -9 7 -1 34 -8 60 -14
72 -17 93 -21 141 -30 25 -5 54 -11 65 -13 11 -3 45 -8 75 -12 30 -4 66 -10
80 -12 157 -23 645 -22 782 2 15 3 47 7 70 10 24 2 54 7 68 10 14 3 45 8 70
11 25 3 53 10 63 15 9 6 17 8 17 6 0 -6 64 8 170 38 52 15 100 28 105 29 6 1
15 4 20 8 6 3 26 9 45 13 19 4 41 11 50 16 8 4 58 25 110 45 97 37 341 151
350 163 3 3 30 19 60 35 127 68 396 255 510 354 93 82 228 210 275 263 136
152 274 325 288 362 3 9 11 17 17 17 5 0 10 6 10 13 0 7 8 22 18 33 9 11 24
31 31 45 8 13 38 62 66 109 27 47 57 99 65 115 8 17 17 32 20 35 12 12 30 51
30 64 0 8 4 16 8 18 12 5 125 266 166 383 53 149 102 324 121 423 2 13 6 31 9
40 3 9 7 33 10 52 3 19 7 44 10 55 2 11 7 40 11 65 3 25 8 57 11 72 2 15 7 60
10 100 3 40 7 91 9 113 6 49 6 412 0 475 -12 148 -19 211 -31 282 -3 23 4 33
65 76 l68 50 29 -24 c37 -30 44 -30 44 1 0 14 6 25 13 25 8 0 40 20 73 45 32
24 65 45 72 45 6 0 12 3 12 8 0 4 24 23 53 42 28 19 54 37 57 40 3 3 51 38
108 78 101 72 119 92 84 92 -19 0 -65 29 -47 30 6 0 20 7 30 15 11 9 84 61
163 117 161 114 158 107 43 144 l-65 20 84 60 c45 32 115 81 154 108 39 27 73
52 76 55 3 3 24 19 47 34 l42 29 -17 33 c-12 24 -21 31 -32 25 -8 -4 -40 -19
-70 -33 -164 -76 -230 -105 -230 -103 0 9 71 121 80 126 5 3 -1 17 -15 32 -13
14 -21 29 -18 32 4 3 1 6 -6 6 -7 0 -15 -8 -18 -17 -2 -10 -42 -43 -89 -73
-46 -30 -84 -58 -84 -62 0 -5 -5 -8 -11 -8 -6 0 -9 6 -6 14 3 7 -8 26 -23 41
l-29 28 -11 -29 c-40 -106 -103 -186 -204 -261 -64 -47 -80 -53 -71 -24 6 18
10 38 21 88 3 18 -34 -5 -178 -106 -101 -71 -204 -145 -230 -165 -25 -20 -49
-36 -53 -36 -3 0 -14 -7 -23 -16 -19 -19 -13 -29 -63 111 -17 50 -58 150 -91
224 -32 74 -55 137 -51 141 29 26 165 120 172 120 5 0 11 3 13 8 2 4 30 25 63
47 86 58 88 66 20 79 -84 16 -135 29 -135 35 0 3 61 47 136 98 74 51 133 89
130 85 -2 -4 1 -19 7 -35 l12 -27 60 39 c33 22 65 44 70 48 6 5 46 33 90 62
149 100 270 185 273 193 2 4 9 8 17 8 7 0 18 6 24 13 8 11 5 16 -15 25 -14 7
-33 12 -42 12 -43 0 -41 21 9 89 27 36 69 93 92 126 24 33 60 83 80 111 l37
51 -23 21 -23 21 -73 -49 c-40 -28 -77 -50 -82 -50 -5 0 -9 -4 -9 -8 0 -4 -13
-16 -30 -25 -45 -27 -354 -240 -360 -248 -3 -4 -17 -12 -32 -18 -20 -8 -29 -7
-38 4 -14 17 -1 52 44 117 44 65 47 75 34 102 -6 14 -14 26 -18 26 -4 0 -27
-15 -51 -33 -24 -18 -71 -50 -104 -72 -33 -22 -62 -43 -65 -46 -3 -3 -15 -11
-27 -18 -22 -11 -23 -10 -24 21 0 18 -4 41 -8 51 -6 17 -8 17 -30 -2 -13 -12
-28 -21 -32 -21 -4 0 -14 -6 -21 -13 -7 -7 -56 -41 -108 -76 -52 -35 -116 -80
-143 -99 l-47 -34 5 41 5 41 -58 -37 c-31 -20 -59 -39 -62 -42 -12 -15 -146
-101 -156 -101 -7 0 -29 21 -50 47 -22 26 -88 98 -149 160 -67 68 -106 115
-100 120 6 5 35 26 65 48 30 22 65 49 77 60 12 11 61 49 107 85 47 36 85 69
85 74 1 5 -8 16 -18 25 -19 17 -19 18 11 42 17 13 38 31 47 39 9 8 47 39 85
68 90 71 104 83 132 110 13 13 24 20 24 17 0 -6 15 6 48 36 9 8 39 33 67 55
70 55 84 66 110 89 12 11 35 29 50 40 57 41 90 75 75 76 -8 0 -24 3 -35 5 -11
3 -35 7 -54 10 -59 8 -63 16 -31 54 16 19 66 82 110 140 44 58 86 112 93 121
8 8 33 42 58 75 94 126 97 134 58 154 -13 7 -19 7 -19 0z"/>
</g>
</svg>
